<svg xmlns="http://www.w3.org/2000/svg" width="103" height="89" viewBox="0 0 103 89" fill="none">
<path d="M96.7261 38.1644V30.4639H103V15.0079H92.3321L51.4998 0L10.6679 15.0079H0V30.4641H6.27395V38.1645H9.33357V65.6187H6.27395V73.3191H0V88.7753H103V73.3191H96.7261V65.6187H93.6664V38.1644H96.7261ZM51.4998 5.99634L76.0174 15.0077H26.9826L51.4998 5.99634ZM96.7261 78.8774H96.881V83.2167H6.11904V78.8774H6.27395H96.7261ZM76.2484 32.6061H71.3617H53.9434H49.0566H31.6383H26.7516H12.393V30.4641H90.607V32.6061H76.2484ZM87.5474 38.1644V65.6185H82.3674V38.1644H87.5474ZM76.2482 38.1644V65.6185H71.3615V38.1644H76.2482ZM65.2427 38.1644V65.6185H60.0627V38.1644H65.2427ZM49.0566 38.1644H53.9434V65.6185H49.0566V38.1644ZM42.9375 38.1644V65.6185H37.7575V38.1644H42.9375ZM31.6383 38.1644V65.6185H26.7516V38.1644H31.6383ZM20.6326 38.1644V65.6185H15.4526V38.1644H20.6326ZM26.7516 71.177H31.6383H49.0566H53.9434H71.3617H76.2484H90.607V73.3189H12.393V71.177H26.7516ZM6.27395 24.9056H6.11904V20.5664H96.881V24.9056H96.7261H6.27395Z" fill="#861f41"/>
</svg>