<svg width="30" height="30" viewBox="0 0 30 30" fill="none" xmlns="http://www.w3.org/2000/svg">
<g clip-path="url(#clip0_10650_17)">
<path d="M1.55978 25.8696H28.4402C29.3043 25.8207 30 25.0978 30 24.2228V6.64674C30 5.74457 29.2663 5.00543 28.3641 5H1.63587C0.733696 5.00543 0 5.74457 0 6.64674V24.2174C0 25.0978 0.695652 25.8207 1.55978 25.8696Z" fill="#FEFEFE"/>
<path d="M12.9022 17.5163V25.8696H17.0761V17.5163H30V13.3424H17.0761V5H12.9022V13.3424H0V17.5163H12.9022Z" fill="#C8102E"/>
<path d="M18.4674 11.7554V5H28.375C29.0598 5.01087 29.6468 5.44022 29.8859 6.04348L18.4674 11.7554Z" fill="#012169"/>
<path d="M18.4674 19.114V25.8694H28.4402C29.0978 25.8314 29.6522 25.4075 29.8859 24.826L18.4674 19.114Z" fill="#012169"/>
<path d="M11.5109 19.114V25.8694H1.55979C0.902179 25.8314 0.342397 25.4075 0.114136 24.8151L11.5109 19.114Z" fill="#012169"/>
<path d="M11.5109 11.7554V5H1.62501C0.940223 5.01087 0.347831 5.44565 0.114136 6.05435L11.5109 11.7554Z" fill="#012169"/>
<path d="M0 11.9565H4.15761L0 9.875V11.9565Z" fill="#012169"/>
<path d="M30 11.9564H25.8207L30 9.86401V11.9564Z" fill="#012169"/>
<path d="M30 18.9131H25.8207L30 21.0055V18.9131Z" fill="#012169"/>
<path d="M0 18.9131H4.15761L0 20.9946V18.9131Z" fill="#012169"/>
<path d="M30 6.76636L19.6467 11.9566H21.9619L30 7.93484V6.76636Z" fill="#C8102E"/>
<path d="M10.3315 18.9131H8.0163L0 22.924V24.0924L10.3533 18.9131H10.3315Z" fill="#C8102E"/>
<path d="M5.71739 11.9619H8.03261L0 7.94019V9.10323L5.71739 11.9619Z" fill="#C8102E"/>
<path d="M24.2554 18.9077H21.9402L30 22.9458V21.7827L24.2554 18.9077Z" fill="#C8102E"/>
</g>
<defs>
<clipPath id="clip0_10650_17">
<rect y="5" width="30" height="20.8696" rx="2" fill="white"/>
</clipPath>
</defs>
</svg>
