<svg width="25" height="18" viewBox="0 0 25 18" fill="none" xmlns="http://www.w3.org/2000/svg">
<path d="M17.1049 17.513C16.8236 17.7847 16.4468 17.9351 16.0557 17.9317C15.6646 17.9283 15.2905 17.7714 15.0139 17.4948C14.7373 17.2183 14.5805 16.8441 14.5771 16.453C14.5737 16.0619 14.724 15.6851 14.9957 15.4038L19.9078 10.4917L1.49167 10.4917C1.09605 10.4917 0.716641 10.3345 0.436899 10.0548C0.157157 9.77507 0 9.39565 0 9.00004C0 8.60442 0.157157 8.22501 0.436899 7.94527C0.716641 7.66553 1.09605 7.50837 1.49167 7.50837L19.9078 7.50837L14.9957 2.59631C14.724 2.31498 14.5737 1.93818 14.5771 1.54707C14.5805 1.15596 14.7373 0.781827 15.0139 0.505259C15.2905 0.228692 15.6646 0.0718144 16.0557 0.0684158C16.4468 0.0650171 16.8236 0.21537 17.1049 0.487089L24.5633 7.94543C24.8429 8.22516 25 8.6045 25 9.00004C25 9.39558 24.8429 9.77492 24.5633 10.0546L17.1049 17.513Z" fill="#861F41"/>
</svg>
