<svg xmlns="http://www.w3.org/2000/svg" version="1.0" fill="#ffffff" width="825.000000pt" height="899.000000pt" viewBox="0 0 825.000000 899.000000" preserveAspectRatio="xMidYMid meet">

<g transform="translate(0.000000,899.000000) scale(0.100000,-0.100000)" fill="#ffffff" stroke="none">
<path d="M4160 8553 c0 -104 -3 -218 -7 -255 l-6 -68 30 0 30 0 6 246 c4 136 4 251 1 255 -3 5 -16 9 -30 9 l-24 0 0 -187z" fill="#ffffff"/>
<path d="M4310 8716 c0 -30 16 -36 96 -36 l64 0 0 -32 c0 -18 -7 -116 -15 -218 -8 -102 -15 -191 -15 -197 0 -8 12 -13 28 -13 l29 0 12 208 c7 114 15 215 18 226 5 17 12 18 84 12 79 -7 79 -7 79 17 0 23 -4 25 -67 30 -38 4 -113 9 -168 12 -55 4 -110 8 -122 11 -19 4 -23 0 -23 -20z" fill="#ffffff"/>
<path d="M3748 8713 c-12 -3 -16 -12 -13 -31 2 -15 9 -103 15 -197 6 -93 13 -194 16 -224 l6 -53 96 6 c204 13 212 15 212 43 0 24 -1 25 -57 19 -155 -15 -203 -17 -203 -10 0 5 -7 99 -15 209 -8 110 -15 210 -15 223 0 22 -7 24 -42 15z" fill="#ffffff"/>
<path d="M3543 8682 c-13 -2 -23 -10 -23 -18 0 -19 81 -478 86 -483 2 -2 15 -1 29 3 20 5 24 11 20 29 -3 12 -23 123 -45 246 -22 123 -41 224 -42 225 -2 1 -13 0 -25 -2z" fill="#ffffff"/>
<path d="M3206 8601 c-93 -25 -171 -50 -173 -56 -1 -5 1 -16 6 -24 8 -13 20 -12 85 6 42 12 78 18 80 15 2 -4 27 -95 55 -202 29 -107 54 -203 57 -212 6 -21 42 -24 50 -4 3 7 -20 106 -50 218 -31 113 -56 210 -56 215 0 5 34 17 75 27 68 16 75 20 75 42 0 31 -1 31 -204 -25z" fill="#ffffff"/>
<path d="M4853 8412 c-123 -177 -148 -218 -135 -224 32 -13 43 -8 73 36 l31 43 117 -31 c64 -17 122 -35 129 -39 7 -5 12 -29 12 -57 0 -45 2 -50 25 -56 14 -4 28 -5 30 -2 6 6 -45 522 -53 530 -4 3 -23 9 -42 12 l-35 6 -152 -218z m202 3 c8 -87 13 -160 12 -161 -2 -3 -166 39 -205 51 -8 3 20 52 80 140 50 74 93 133 95 131 2 -2 10 -75 18 -161z" fill="#ffffff"/>
<path d="M2838 8479 c-16 -9 -9 -28 73 -190 109 -219 110 -228 30 -276 -30 -18 -75 -40 -99 -50 -71 -27 -82 -15 -187 190 -49 97 -94 177 -100 177 -5 0 -17 -5 -25 -10 -13 -8 -1 -38 72 -183 49 -95 102 -188 119 -205 45 -46 85 -43 197 13 112 56 146 93 139 148 -5 39 -177 389 -194 394 -4 1 -16 -2 -25 -8z" fill="#ffffff"/>
<path d="M5405 8471 c-28 -12 -52 -41 -70 -84 -35 -85 -9 -132 107 -192 91 -47 108 -62 108 -92 0 -39 -38 -102 -65 -109 -29 -7 -82 9 -148 44 -59 32 -69 49 -57 93 14 46 13 48 -12 58 -19 7 -25 4 -35 -18 -15 -33 -16 -86 -3 -112 22 -41 186 -119 249 -119 54 0 111 69 125 150 10 53 -19 89 -105 134 -94 49 -119 72 -119 108 0 43 27 87 57 94 36 9 123 -21 168 -59 33 -27 36 -33 30 -67 -6 -33 -4 -39 15 -45 27 -9 31 -5 37 43 8 61 -18 97 -102 138 -73 36 -146 50 -180 35z" fill="#ffffff"/>
<path d="M5956 7889 c-26 -20 -36 -69 -18 -95 10 -15 47 -34 67 -34 25 0 65 46 65 75 0 30 -41 75 -68 75 -11 0 -31 -9 -46 -21z" fill="#ffffff"/>
<path d="M2263 7892 c-51 -8 -70 -83 -30 -120 48 -45 117 -14 117 51 0 48 -38 77 -87 69z" fill="#ffffff"/>
<path d="M6325 7633 l-116 -237 29 -28 28 -29 199 92 c110 50 220 100 244 111 l45 19 -22 21 -21 22 -188 -88 c-103 -49 -203 -95 -221 -102 -32 -14 -32 -14 77 205 104 207 109 220 92 235 -10 9 -20 16 -24 16 -4 0 -58 -107 -122 -237z" fill="#ffffff"/>
<path d="M1692 7634 c-65 -33 -152 -153 -152 -210 0 -61 76 -134 139 -134 45 0 66 13 147 91 45 43 80 69 94 69 28 0 100 -70 100 -97 0 -47 -111 -173 -153 -173 -11 0 -32 10 -49 21 -27 20 -31 20 -45 6 -23 -23 -9 -45 41 -68 41 -18 48 -18 80 -5 69 29 176 163 176 221 0 65 -82 145 -148 145 -44 0 -87 -27 -133 -82 -20 -24 -52 -52 -71 -62 -35 -19 -36 -19 -69 0 -43 26 -64 62 -55 98 4 15 30 52 59 82 56 56 87 67 126 42 15 -9 23 -9 35 1 22 18 20 26 -9 45 -38 25 -76 28 -113 10z" fill="#ffffff"/>
<path d="M4073 7577 l-73 -32 0 -46 c0 -52 -4 -59 -31 -52 -14 4 -19 14 -19 39 0 19 -1 34 -3 34 -20 0 -162 -72 -162 -83 0 -7 12 -28 27 -45 l27 -32 350 0 c216 0 351 4 351 10 0 5 11 20 25 34 14 14 25 29 25 34 0 8 -158 82 -175 82 -3 0 -5 -8 -4 -17 4 -47 -1 -61 -20 -56 -16 4 -21 15 -23 51 l-3 45 -78 34 c-44 18 -81 33 -83 33 -2 0 -4 -36 -4 -79 0 -58 -4 -80 -14 -84 -23 -9 -26 2 -26 85 0 43 -3 78 -7 77 -5 0 -41 -15 -80 -32z" fill="#ffffff"/>
<path d="M6630 7315 c-107 -78 -195 -148 -195 -155 0 -6 40 -67 89 -135 79 -109 91 -122 108 -112 10 7 18 14 18 17 0 3 -34 52 -75 109 -41 57 -75 107 -75 110 0 3 11 13 23 21 12 9 45 32 73 53 l51 36 73 -102 c41 -56 75 -104 77 -106 4 -5 33 20 33 29 0 4 -32 51 -71 104 -53 73 -68 101 -60 110 6 7 38 32 70 55 l59 41 79 -109 c65 -92 81 -108 96 -100 9 5 17 13 17 18 0 11 -178 255 -188 258 -4 1 -95 -63 -202 -142z" fill="#ffffff"/>
<path d="M3777 7323 c-4 -3 -7 -10 -7 -15 0 -4 185 -8 410 -8 358 0 410 2 410 15 0 13 -51 15 -403 15 -222 0 -407 -3 -410 -7z" fill="#ffffff"/>
<path d="M3754 7231 c-82 -57 -214 -193 -267 -274 -59 -89 -132 -242 -166 -350 -17 -53 -31 -104 -31 -111 0 -8 -10 -16 -22 -18 -13 -2 -23 -10 -23 -18 0 -13 112 -15 938 -18 932 -2 937 -2 937 18 0 13 -7 20 -20 20 -13 0 -21 9 -26 28 -12 58 -76 237 -106 296 -85 168 -207 318 -341 418 l-79 58 -362 0 -363 0 -69 -49z m86 25 c0 -2 -7 -7 -16 -10 -8 -3 -12 -2 -9 4 6 10 25 14 25 6z m210 -1 c0 -2 -17 -13 -37 -24 -35 -17 -40 -18 -70 -3 -18 9 -33 19 -33 24 0 4 32 8 70 8 39 0 70 -2 70 -5z m176 -17 l-39 -20 -41 20 -41 21 80 0 80 0 -39 -21z m234 18 c0 -2 -14 -13 -32 -24 -32 -20 -32 -20 -70 -1 -21 11 -38 22 -38 24 0 3 32 5 70 5 39 0 70 -2 70 -4z m-556 -37 c20 -12 34 -24 32 -27 -2 -4 -20 -15 -39 -26 -35 -18 -35 -18 -72 7 l-37 25 38 21 c22 11 40 20 41 21 1 0 18 -9 37 -21z m211 4 c19 -9 35 -19 35 -22 0 -3 -16 -16 -36 -29 l-35 -23 -35 21 c-19 12 -34 24 -34 26 0 4 61 44 67 44 1 0 18 -8 38 -17z m205 -3 c22 -11 40 -22 40 -24 0 -2 -16 -14 -36 -25 l-36 -21 -34 21 c-41 25 -42 34 -6 53 34 19 26 19 72 -4z m215 3 c19 -9 35 -20 35 -24 0 -4 -16 -17 -35 -29 -31 -19 -36 -20 -62 -6 -58 32 -59 33 -17 55 21 11 40 20 41 21 1 0 18 -8 38 -17z m-732 -67 l38 -23 -35 -27 c-19 -14 -38 -26 -43 -26 -5 0 -26 12 -47 26 l-38 26 34 23 c41 30 44 30 91 1z m211 3 c20 -12 36 -23 36 -25 0 -2 -18 -16 -40 -30 l-39 -26 -36 22 c-19 12 -35 25 -35 30 0 8 58 47 72 49 4 1 23 -8 42 -20z m214 -1 l35 -22 -33 -28 c-19 -15 -39 -28 -44 -28 -5 0 -27 12 -48 26 l-38 27 32 23 c41 29 52 29 96 2z m203 0 c22 -12 39 -24 39 -27 0 -6 -66 -51 -75 -51 -10 0 -75 45 -75 52 0 5 60 47 69 48 2 0 21 -10 42 -22z m215 1 c19 -11 34 -24 34 -27 0 -7 -65 -52 -75 -52 -10 0 -75 45 -75 52 0 7 60 46 74 47 5 1 24 -8 42 -20z m-955 -66 c21 -16 39 -31 39 -35 0 -4 -16 -19 -35 -34 l-35 -26 -35 26 c-19 15 -35 30 -35 33 0 8 51 63 58 63 2 0 21 -12 43 -27z m432 -64 c-21 -15 -42 -29 -46 -29 -11 0 -77 51 -77 60 0 4 17 19 38 32 l37 25 43 -29 43 -30 -38 -29z m233 40 c13 -14 10 -19 -26 -43 -22 -14 -43 -26 -47 -26 -5 0 -24 14 -43 30 -30 26 -33 32 -19 40 9 5 27 18 40 29 23 18 25 18 52 3 16 -10 35 -24 43 -33z m392 -41 c-18 -15 -37 -27 -43 -27 -5 0 -25 13 -44 29 l-33 28 43 31 43 31 33 -32 34 -33 -33 -27z m-841 60 c18 -13 33 -26 33 -30 0 -9 -64 -58 -76 -58 -5 0 -25 14 -44 30 -29 25 -32 32 -20 39 8 5 24 17 35 25 27 20 33 20 72 -6z m641 -6 l34 -28 -39 -27 c-22 -15 -42 -27 -45 -27 -3 0 -22 13 -42 29 l-36 29 32 26 c41 32 55 32 96 -2z m-747 -69 c21 -16 39 -31 39 -35 0 -3 -17 -20 -39 -37 l-38 -30 -39 34 -39 35 35 30 c19 16 37 30 38 30 2 0 21 -12 43 -27z m209 1 c22 -15 40 -30 40 -34 0 -5 -17 -22 -39 -39 l-38 -30 -42 32 -42 32 38 32 c21 18 39 33 41 33 1 0 20 -12 42 -26z m211 -1 c21 -16 39 -31 39 -35 0 -3 -18 -21 -40 -38 l-40 -32 -40 35 -39 36 37 30 c20 17 39 30 40 31 2 0 21 -12 43 -27z m211 1 c21 -15 38 -30 38 -35 0 -4 -17 -21 -39 -38 l-38 -30 -42 32 -41 32 37 32 c21 18 40 32 42 33 3 0 22 -12 43 -26z m227 -14 c13 -12 20 -24 15 -28 -5 -4 -23 -20 -41 -36 l-32 -29 -40 36 -40 36 41 30 c43 32 49 32 97 -9z m-1054 6 l30 -24 -29 -31 c-34 -36 -56 -39 -81 -11 -17 19 -17 21 9 55 15 19 30 35 34 35 4 0 21 -11 37 -24z m1223 -6 c27 -36 27 -42 0 -67 l-23 -21 -40 33 c-22 19 -37 35 -35 38 38 29 64 47 69 47 4 0 17 -13 29 -30z m-1123 -74 c22 -19 38 -36 35 -38 -3 -1 -21 -18 -41 -36 l-35 -32 -43 37 -43 36 38 33 c22 18 41 33 44 33 3 1 23 -15 45 -33z m218 -9 l28 -24 -41 -37 -42 -38 -36 34 c-20 18 -39 35 -42 36 -3 2 13 19 35 37 42 36 46 36 98 -8z m201 8 l39 -35 -39 -35 c-21 -19 -41 -34 -44 -34 -3 -1 -23 15 -45 34 l-40 35 40 35 c22 19 42 35 45 34 3 0 23 -15 44 -34z m209 0 l38 -33 -38 -36 c-21 -19 -43 -36 -49 -36 -5 0 -26 16 -45 36 l-34 36 39 34 c22 19 42 34 45 34 3 -1 23 -16 44 -35z m210 1 l38 -34 -42 -35 -41 -36 -39 31 c-22 17 -39 35 -39 39 0 7 71 68 80 68 3 0 22 -15 43 -33z m216 -10 c14 -15 21 -29 15 -34 -5 -4 -23 -20 -40 -35 l-30 -27 -42 36 -42 36 41 34 c45 37 55 36 98 -10z m-1235 -5 c16 -18 15 -20 -26 -54 -55 -46 -72 -34 -38 28 27 50 39 54 64 26z m1382 -27 c20 -34 24 -48 15 -57 -8 -8 -21 -1 -51 28 -37 36 -39 40 -23 57 23 26 29 23 59 -28z m-1304 -45 l39 -32 -37 -38 c-21 -22 -43 -39 -49 -39 -6 0 -27 16 -46 36 l-34 35 37 35 c21 19 40 34 44 34 3 0 24 -14 46 -31z m208 -3 l38 -34 -38 -37 -38 -37 -30 20 c-57 41 -59 49 -22 87 19 19 38 35 43 35 5 0 27 -15 47 -34z m211 -3 l41 -38 -43 -37 -44 -38 -43 43 -42 42 37 32 c21 18 41 32 45 33 5 0 27 -17 49 -37z m204 2 l40 -34 -39 -40 -39 -40 -43 37 -43 37 37 38 c20 20 39 37 42 37 3 -1 23 -16 45 -35z m213 0 l37 -35 -45 -40 -45 -40 -39 40 -40 39 39 35 c22 19 43 35 48 36 4 0 24 -16 45 -35z m205 4 l38 -32 -37 -38 c-21 -22 -41 -39 -44 -39 -3 0 -23 17 -44 37 l-39 36 39 34 c21 18 41 33 44 33 3 0 23 -14 43 -31z m209 -3 l37 -33 -38 -37 c-43 -42 -54 -41 -100 8 l-25 26 34 35 c19 19 39 35 44 35 6 -1 28 -16 48 -34z m-1430 -48 c-7 -7 -12 -8 -12 -2 0 14 12 26 19 19 2 -3 -1 -11 -7 -17z m1532 6 c5 -14 4 -15 -9 -4 -17 14 -19 20 -6 20 5 0 12 -7 15 -16z m-1441 -63 l27 -25 -27 -29 c-49 -51 -61 -53 -99 -16 -19 18 -34 38 -34 45 0 7 17 26 37 43 40 33 39 33 96 -18z m193 15 l39 -35 -42 -43 -43 -42 -40 39 -40 39 37 38 c20 21 40 38 43 38 4 0 24 -15 46 -34z m207 -1 c20 -20 37 -39 37 -44 0 -10 -67 -71 -78 -71 -5 0 -26 18 -47 41 l-40 41 40 34 c22 18 42 34 45 34 3 0 22 -16 43 -35z m210 -77 c-20 -21 -40 -38 -43 -38 -3 0 -23 17 -44 37 l-39 36 42 40 43 39 39 -38 39 -38 -37 -38z m236 37 c1 -12 -60 -75 -73 -75 -6 0 -27 17 -48 37 l-38 37 42 37 43 37 37 -32 c20 -17 37 -35 37 -41z m178 43 c18 -18 33 -37 33 -42 0 -6 -19 -26 -41 -45 l-41 -33 -39 38 -40 39 40 38 c22 20 44 37 48 37 4 0 22 -14 40 -32z m210 -4 l45 -37 -38 -38 c-21 -22 -43 -39 -48 -39 -6 0 -27 17 -48 37 l-38 37 37 38 c20 21 39 38 41 38 3 0 25 -16 49 -36z m206 -2 l37 -38 -40 -39 -40 -39 -40 39 -40 39 37 38 c20 21 40 38 43 38 3 0 23 -17 43 -38z m-1103 -130 c0 -10 -74 -82 -84 -82 -6 0 -27 17 -48 37 l-38 37 41 42 42 43 44 -36 c23 -19 43 -38 43 -41z m830 -1 c0 -4 -18 -24 -39 -45 l-39 -38 -46 38 -46 38 42 43 41 42 44 -36 c23 -19 43 -38 43 -42z m-1078 32 l38 -37 -37 -38 c-20 -21 -42 -38 -47 -38 -13 0 -76 61 -76 74 0 13 61 76 74 76 6 0 27 -17 48 -37z m420 0 l38 -37 -37 -38 c-20 -21 -42 -38 -49 -38 -13 0 -74 65 -74 79 0 8 70 70 80 71 2 0 21 -17 42 -37z m203 6 c19 -17 35 -36 35 -42 0 -14 -61 -77 -74 -77 -6 0 -27 17 -48 37 l-38 37 37 38 c20 21 40 38 45 38 4 0 23 -14 43 -31z m208 -7 l37 -38 -40 -39 -40 -39 -40 39 -40 39 37 38 c20 21 40 38 43 38 3 0 23 -17 43 -38z m420 0 l37 -38 -43 -42 -43 -42 -37 38 c-20 21 -37 43 -37 49 0 12 66 73 78 73 5 0 25 -17 45 -38z m-1448 -2 l29 -31 -46 -46 c-44 -44 -46 -45 -57 -25 -9 16 -7 33 10 76 11 31 24 56 28 56 4 0 20 -14 36 -30z m1619 -24 c19 -65 19 -69 4 -84 -9 -9 -22 -3 -55 30 l-43 42 32 33 c18 18 35 33 39 33 4 0 15 -24 23 -54z m-1484 -113 c0 -2 -39 -3 -87 -3 l-87 0 44 45 44 45 43 -42 c24 -23 43 -43 43 -45z m410 5 c0 -4 -39 -8 -87 -8 l-88 0 50 44 50 44 38 -36 c20 -20 37 -40 37 -44z m630 -5 c0 -2 -39 -3 -87 -3 l-87 0 44 45 44 45 43 -42 c24 -23 43 -43 43 -45z m-890 54 c61 -55 61 -57 -31 -57 l-83 0 39 40 c21 22 42 40 45 40 3 0 16 -11 30 -23z m435 -17 l39 -40 -89 0 -90 1 44 39 c24 22 47 40 50 40 4 0 25 -18 46 -40z m210 0 l39 -40 -82 0 c-45 0 -82 3 -82 7 0 12 63 73 75 73 6 0 29 -18 50 -40z m412 8 c18 -18 33 -36 33 -40 0 -4 -37 -8 -82 -8 l-82 0 39 40 c21 22 44 40 49 40 6 0 25 -14 43 -32z m218 -8 l39 -40 -89 0 -89 0 39 40 c21 22 44 40 50 40 6 0 29 -18 50 -40z m95 -30 c0 -5 -5 -10 -11 -10 -5 0 -7 5 -4 10 3 6 8 10 11 10 2 0 4 -4 4 -10z" fill="#ffffff"/>
<path d="M1272 7076 l-20 -33 66 -79 c289 -345 279 -335 296 -310 14 23 13 26 -20 69 l-36 46 63 108 c34 59 64 110 65 112 2 2 27 -1 56 -7 46 -9 55 -8 66 6 7 9 11 21 9 26 -3 8 -458 94 -509 95 -9 1 -25 -14 -36 -33z m205 -47 c73 -12 138 -26 144 -30 8 -5 -5 -35 -41 -98 -28 -51 -55 -91 -60 -89 -4 2 -47 50 -95 108 -48 58 -95 113 -104 124 -15 17 -15 18 4 13 11 -3 79 -16 152 -28z" fill="#ffffff"/>
<path d="M6891 6945 c-117 -63 -216 -116 -218 -119 -7 -7 7 -46 17 -46 4 0 95 47 202 103 106 57 194 103 196 101 2 -1 -55 -104 -127 -228 -72 -124 -131 -230 -131 -236 0 -20 30 -70 43 -70 18 1 430 225 434 236 2 5 -2 17 -9 26 -12 15 -33 6 -207 -88 -107 -57 -198 -104 -202 -104 -4 0 53 104 127 231 128 219 135 233 124 260 -7 15 -17 33 -24 38 -7 6 -81 -28 -225 -104z" fill="#ffffff"/>
<path d="M1081 6717 c-94 -226 -124 -308 -113 -319 20 -20 38 -1 65 70 l28 70 211 -85 c116 -46 211 -83 213 -81 1 2 7 13 14 25 10 20 3 24 -199 105 -120 47 -210 88 -210 96 0 7 11 39 25 72 30 72 31 76 4 83 -17 4 -24 -2 -38 -36z" fill="#ffffff"/>
<path d="M7187 6420 c-92 -28 -180 -56 -197 -65 -64 -33 -75 -93 -39 -211 34 -111 53 -142 98 -155 35 -10 56 -7 243 46 198 56 205 58 200 81 -2 13 -9 24 -15 24 -6 0 -91 -23 -189 -51 -99 -28 -193 -49 -211 -47 -27 3 -36 10 -55 50 -13 26 -29 77 -35 114 -11 65 -11 67 14 88 16 14 94 42 212 76 103 29 187 56 187 61 0 20 -14 39 -29 38 -9 0 -91 -22 -184 -49z" fill="#ffffff"/>
<path d="M3282 6399 c12 -18 10 -23 -17 -45 l-30 -24 949 0 949 0 -27 21 c-21 17 -26 27 -22 45 l6 24 -910 0 -910 0 12 -21z" fill="#ffffff"/>
<path d="M3150 6235 l0 -35 1030 0 1030 0 0 35 0 35 -1030 0 -1030 0 0 -35z" fill="#ffffff"/>
<path d="M914 6235 c-3 -14 -5 -27 -3 -29 3 -2 241 -71 461 -133 21 -6 43 38 24 48 -6 4 -110 35 -231 69 -121 35 -225 65 -232 67 -7 3 -15 -7 -19 -22z" fill="#ffffff"/>
<path d="M3070 6125 l0 -35 1115 0 1115 0 0 35 0 35 -1115 0 -1115 0 0 -35z" fill="#ffffff"/>
<path d="M3120 6040 c0 -22 47 -28 245 -28 l210 0 3 -116 3 -116 101 0 101 0 194 105 c107 58 199 105 205 105 6 0 99 -47 208 -105 l197 -105 101 0 102 0 0 118 0 117 206 -2 c198 -2 254 4 254 27 0 7 -345 10 -1065 10 -677 0 -1065 -4 -1065 -10z" fill="#ffffff"/>
<path d="M844 5975 c-3 -19 -4 -41 -1 -48 2 -7 93 -64 200 -127 108 -63 193 -118 189 -121 -4 -4 -102 -30 -219 -59 -117 -29 -217 -57 -222 -64 -11 -13 -20 -86 -10 -86 3 0 115 -16 249 -35 134 -19 244 -35 246 -35 2 0 4 13 4 28 l0 28 -212 28 c-117 16 -217 31 -222 34 -5 3 95 33 223 66 217 57 251 71 251 101 0 6 -97 66 -214 135 -118 69 -213 126 -211 128 2 2 99 -10 215 -27 117 -17 219 -31 226 -31 8 0 14 10 14 25 0 19 -6 25 -32 30 -46 8 -448 65 -459 65 -4 0 -11 -16 -15 -35z" fill="#ffffff"/>
<path d="M3190 5900 l0 -80 175 0 175 0 0 80 0 80 -175 0 -175 0 0 -80z" fill="#ffffff"/>
<path d="M4830 5900 l0 -80 175 0 175 0 0 80 0 80 -175 0 -175 0 0 -80z" fill="#ffffff"/>
<path d="M3665 5679 l-499 -269 -146 1 -145 1 85 19 c47 10 116 21 154 24 65 4 82 12 270 111 111 59 210 113 220 120 17 12 -23 14 -254 16 -210 2 -274 6 -278 16 -2 7 10 17 27 23 38 14 51 35 51 88 l0 41 -125 0 c-144 0 -175 -11 -175 -61 0 -16 -4 -29 -10 -29 -5 0 -10 -18 -10 -40 0 -22 5 -40 10 -40 7 0 10 -29 8 -77 l-3 -78 -97 -3 -98 -3 0 -64 0 -65 108 0 107 0 17 -40 17 -40 1280 0 1280 0 3 -22 c3 -22 7 -23 131 -26 l127 -3 0 25 0 25 -124 3 -124 3 15 38 15 37 109 0 109 0 0 65 c0 45 -4 65 -12 66 -7 0 -52 0 -100 0 l-88 0 0 80 c0 46 4 79 10 79 6 0 10 18 10 40 0 22 -4 40 -10 40 -5 0 -10 13 -10 30 0 48 -37 60 -180 60 l-120 0 0 -41 c0 -53 13 -74 51 -88 22 -7 29 -15 25 -26 -5 -13 9 -15 94 -15 l100 0 0 -65 0 -66 -102 3 -103 3 -3 63 -3 62 -264 0 c-146 0 -265 -2 -265 -4 0 -2 99 -56 219 -120 206 -109 223 -117 288 -121 37 -3 106 -14 153 -24 l85 -19 -148 -1 -147 -1 -273 146 c-149 81 -376 202 -503 270 -127 68 -237 124 -245 123 -8 -1 -239 -122 -514 -270z m894 40 c207 -111 418 -224 469 -251 50 -27 92 -52 92 -54 0 -2 -34 -4 -75 -4 -66 0 -75 2 -75 18 0 22 -84 65 -110 57 -34 -11 -31 -34 8 -54 l37 -20 -69 -1 -70 0 -275 147 c-152 80 -283 150 -291 156 -12 7 -90 -30 -307 -147 l-291 -156 -68 0 -69 0 39 24 38 23 -22 21 -23 21 -49 -27 c-29 -16 -48 -34 -48 -44 0 -16 -11 -18 -82 -18 l-83 0 45 26 c64 35 894 482 899 483 2 1 173 -90 380 -200z m-1479 -84 l0 -65 -100 0 -100 0 0 65 0 65 100 0 100 0 0 -65z" fill="#ffffff"/>
<path d="M4128 5837 c-25 -15 -38 -29 -38 -44 0 -32 15 -36 58 -14 39 20 39 20 72 0 38 -24 60 -19 60 14 0 17 -11 28 -45 45 -55 27 -60 27 -107 -1z" fill="#ffffff"/>
<path d="M3968 5751 c-39 -21 -48 -31 -48 -53 0 -16 5 -28 10 -28 17 0 130 60 130 69 0 8 -34 42 -41 40 -2 -1 -25 -13 -51 -28z" fill="#ffffff"/>
<path d="M4320 5755 c-8 -9 -9 -19 -4 -24 23 -20 122 -70 127 -64 4 3 7 18 7 33 0 21 -9 30 -45 48 -54 26 -68 27 -85 7z" fill="#ffffff"/>
<path d="M3788 5654 c-47 -24 -58 -43 -39 -72 6 -10 23 -5 74 23 37 20 67 38 67 40 0 9 -33 35 -43 35 -7 -1 -33 -12 -59 -26z" fill="#ffffff"/>
<path d="M4496 5661 c-17 -19 -15 -20 48 -56 69 -38 86 -39 86 -1 0 17 -12 30 -49 49 -58 32 -63 33 -85 8z" fill="#ffffff"/>
<path d="M3618 5564 c-41 -21 -48 -29 -48 -54 0 -38 10 -37 79 1 71 40 67 35 46 59 -22 24 -19 25 -77 -6z" fill="#ffffff"/>
<path d="M4677 5572 c-10 -10 -17 -22 -17 -25 0 -8 115 -67 130 -67 5 0 10 12 10 28 0 22 -9 32 -50 55 -28 15 -52 27 -53 27 -2 0 -11 -8 -20 -18z" fill="#ffffff"/>
<path d="M7332 5903 c-54 -27 -66 -61 -59 -181 6 -100 5 -105 -18 -128 -19 -19 -35 -24 -74 -24 -64 0 -79 20 -94 124 -14 95 -4 120 53 137 28 9 39 17 35 27 -3 7 -5 18 -5 23 0 14 -36 11 -76 -6 -48 -20 -68 -69 -60 -150 19 -173 64 -225 179 -210 40 6 59 15 86 42 l34 34 -7 103 c-8 127 -1 151 53 167 81 24 114 -11 127 -133 6 -62 5 -68 -19 -92 -14 -14 -33 -26 -42 -26 -9 0 -15 -9 -15 -25 0 -31 31 -34 77 -5 44 26 56 76 43 170 -12 82 -41 143 -77 159 -35 16 -103 13 -141 -6z" fill="#ffffff"/>
<path d="M7530 5406 c0 -18 -3 -54 -6 -80 l-7 -46 -223 0 -224 0 0 -25 0 -25 118 0 c66 0 167 -3 225 -7 l107 -6 0 -79 c0 -77 0 -78 25 -78 l25 0 0 144 c0 79 3 164 6 190 7 45 6 46 -20 46 -23 0 -26 -4 -26 -34z" fill="#ffffff"/>
<path d="M2650 5305 l0 -25 125 0 125 0 0 25 0 25 -125 0 -125 0 0 -25z" fill="#ffffff"/>
<path d="M2993 5262 c36 -39 25 -42 -163 -42 -153 0 -180 -2 -180 -15 0 -13 27 -15 185 -15 158 0 185 2 185 15 0 9 9 15 25 15 25 0 31 13 19 44 -4 11 -19 16 -47 16 -38 0 -39 -1 -24 -18z" fill="#ffffff"/>
<path d="M3126 5264 c-15 -40 -9 -44 69 -44 77 0 84 4 65 41 -9 15 -22 19 -69 19 -44 0 -60 -4 -65 -16z" fill="#ffffff"/>
<path d="M3320 5261 c-19 -37 -12 -41 65 -41 78 0 84 4 69 44 -5 12 -21 16 -65 16 -47 0 -60 -4 -69 -19z" fill="#ffffff"/>
<path d="M3516 5264 c-15 -40 -9 -44 69 -44 78 0 84 4 69 44 -9 23 -129 23 -138 0z" fill="#ffffff"/>
<path d="M3712 5256 c-6 -13 -8 -27 -5 -30 4 -3 39 -6 80 -6 75 0 82 4 63 41 -9 15 -22 19 -69 19 -51 0 -59 -3 -69 -24z" fill="#ffffff"/>
<path d="M3910 5261 c-19 -37 -12 -41 65 -41 78 0 84 4 69 44 -5 12 -21 16 -65 16 -47 0 -60 -4 -69 -19z" fill="#ffffff"/>
<path d="M4106 5264 c-16 -40 -9 -44 79 -44 87 0 94 4 75 41 -9 16 -22 19 -79 19 -54 0 -70 -4 -75 -16z" fill="#ffffff"/>
<path d="M4320 5261 c-19 -37 -12 -41 65 -41 78 0 84 4 69 44 -5 12 -21 16 -65 16 -47 0 -60 -4 -69 -19z" fill="#ffffff"/>
<path d="M4522 5268 c-7 -7 -12 -20 -12 -30 0 -16 9 -18 75 -18 78 0 84 4 69 44 -8 20 -113 23 -132 4z" fill="#ffffff"/>
<path d="M4716 5264 c-15 -40 -9 -44 69 -44 77 0 84 4 65 41 -9 15 -22 19 -69 19 -44 0 -60 -4 -65 -16z" fill="#ffffff"/>
<path d="M4910 5261 c-19 -37 -12 -41 65 -41 78 0 84 4 69 44 -5 12 -21 16 -65 16 -47 0 -60 -4 -69 -19z" fill="#ffffff"/>
<path d="M5106 5264 c-15 -40 -9 -44 69 -44 77 0 84 4 65 41 -9 15 -22 19 -69 19 -44 0 -60 -4 -65 -16z" fill="#ffffff"/>
<path d="M5300 5261 c-16 -32 -12 -41 20 -41 20 0 30 -5 30 -15 0 -13 27 -15 185 -15 158 0 185 2 185 15 0 13 -27 15 -180 15 -167 0 -180 1 -180 18 0 10 5 23 12 30 9 9 4 12 -25 12 -26 0 -39 -6 -47 -19z" fill="#ffffff"/>
<path d="M1132 5249 c-23 -7 -37 -19 -46 -41 -13 -30 -14 -30 -21 -10 -11 37 -60 55 -129 48 -67 -7 -104 -28 -125 -71 -11 -23 -12 -55 -5 -171 6 -79 12 -145 15 -148 3 -3 116 2 252 11 l247 17 0 27 0 28 -105 -6 -105 -6 -2 74 c-5 146 -3 161 20 180 14 11 49 20 97 24 70 7 75 9 75 31 0 23 -3 24 -67 23 -38 0 -83 -5 -101 -10z m-103 -78 c20 -20 25 -48 36 -177 l6 -72 -101 -7 c-56 -4 -103 -5 -105 -3 -2 2 -7 51 -11 109 -9 145 5 167 109 168 34 1 52 -4 66 -18z" fill="#ffffff"/>
<path d="M3034 5175 c5 -13 -20 -15 -190 -15 l-195 0 3 -92 3 -93 190 -3 c150 -2 193 -6 205 -17 12 -13 -12 -15 -193 -15 l-207 0 0 -750 0 -750 100 0 100 0 0 710 0 710 73 0 c75 0 97 -9 97 -42 0 -10 4 -18 8 -18 8 0 32 -43 32 -55 0 -3 -38 -5 -85 -5 l-85 0 0 -185 0 -185 85 0 85 0 0 -70 0 -70 -85 0 -85 0 0 -425 0 -425 -732 2 -733 3 -3 43 -3 42 -130 0 -129 0 0 -75 0 -75 955 0 955 0 0 455 0 455 250 0 250 0 0 -455 0 -455 75 0 75 0 0 -40 0 -40 460 0 460 0 0 40 0 40 75 0 75 0 0 455 0 455 250 0 250 0 0 -455 0 -455 960 0 960 0 0 75 0 75 -135 0 -135 0 0 -45 0 -45 -732 2 -733 3 -3 423 -2 422 -85 0 -85 0 0 70 0 70 85 0 85 0 0 185 0 185 -85 0 c-77 0 -102 8 -75 25 34 21 -12 25 -270 25 -258 0 -304 -4 -270 -25 26 -16 4 -25 -60 -25 l-70 0 0 60 0 60 -460 0 -460 0 0 -60 0 -60 -70 0 c-40 0 -70 4 -70 10 0 6 3 10 8 10 4 0 16 19 27 43 11 23 24 45 30 49 5 4 -122 8 -282 8 l-293 0 0 40 0 40 1110 0 1110 0 0 -40 0 -40 -285 0 c-249 0 -284 -2 -279 -15 5 -13 49 -15 311 -15 257 0 307 2 319 15 11 11 37 15 90 15 l74 0 0 -710 0 -710 100 0 100 0 0 750 0 750 -212 2 c-184 3 -210 5 -190 16 18 10 71 14 199 14 97 0 182 2 189 5 10 4 14 29 14 94 l0 89 -201 0 c-178 0 -200 2 -189 15 11 13 -117 15 -1145 15 -1024 0 -1156 -2 -1151 -15z m2256 -110 l0 -95 -1110 0 -1110 0 0 95 0 95 1110 0 1110 0 0 -95z m-1175 -255 c-3 -5 -16 -10 -28 -10 -42 0 -166 -68 -216 -118 -76 -76 -112 -156 -136 -304 l-6 -38 71 0 70 0 0 -40 0 -40 -70 0 c-56 0 -70 -3 -70 -15 0 -11 12 -15 50 -15 l50 0 0 -335 c0 -217 4 -335 10 -335 6 0 10 -28 10 -63 l0 -62 -57 1 c-32 1 -61 2 -65 3 -5 1 -8 179 -8 396 l0 395 -65 0 -65 0 0 70 0 70 70 0 70 0 0 34 c0 50 33 149 69 205 71 110 178 180 319 210 2 1 0 -3 -3 -9z m282 -43 c117 -60 212 -193 236 -331 l11 -66 68 0 68 0 0 -70 0 -70 -70 0 c-56 0 -70 3 -70 15 0 12 -14 15 -70 15 l-70 0 0 40 0 40 70 0 c39 0 70 2 70 4 0 2 -7 39 -16 82 -38 186 -152 318 -314 365 -62 17 -75 31 -14 15 27 -7 72 -25 101 -39z m-267 14 c0 -5 3 -22 6 -38 6 -29 4 -31 -33 -38 -117 -21 -238 -143 -258 -260 -13 -74 -13 -75 -56 -75 l-40 0 6 38 c30 176 120 295 273 358 59 24 102 31 102 15z m247 -33 c118 -58 217 -198 230 -322 l6 -56 -40 0 -40 0 -6 49 c-6 54 -42 131 -81 179 -36 41 -112 88 -168 103 -49 14 -59 30 -42 74 9 23 61 13 141 -27z m-807 -53 l0 -35 -247 2 -248 3 -3 33 -3 32 250 0 251 0 0 -35z m1718 3 l-3 -33 -247 -3 -248 -2 0 35 0 35 251 0 250 0 -3 -32z m-1030 -63 c38 -12 53 -22 57 -38 3 -12 4 -80 3 -152 l-3 -130 -132 -3 -133 -3 0 155 0 154 33 11 c79 24 109 25 175 6z m-688 -145 l0 -130 -250 0 -250 0 0 130 0 130 250 0 250 0 0 -130z m1720 0 l0 -130 -250 0 -250 0 0 130 0 130 250 0 250 0 0 -130z m-1280 -45 l0 -135 -55 0 -55 0 0 58 c0 35 8 74 21 102 23 51 66 110 80 110 5 0 9 -56 9 -135z m394 93 c40 -47 66 -119 66 -185 l0 -44 -57 3 -58 3 -3 133 c-1 79 1 132 7 132 5 0 26 -19 45 -42z m-394 -338 l0 -50 -55 0 -55 0 0 50 0 50 55 0 55 0 0 -50z m301 48 c0 -2 3 -24 6 -50 l5 -48 -136 0 -136 0 0 50 0 50 130 0 c72 0 130 -1 131 -2z m159 -48 l0 -50 -58 0 -58 0 -2 50 -2 50 60 0 60 0 0 -50z m170 -368 l0 -398 -62 0 -63 1 -3 63 c-2 38 1 62 8 62 7 0 10 108 10 335 l0 335 55 0 55 0 0 -398z m-630 30 c0 -131 -2 -241 -4 -243 -2 -2 -27 -2 -55 -1 l-51 4 0 239 0 239 55 0 55 0 0 -238z m310 -2 l0 -240 -135 0 -135 0 0 240 0 240 135 0 135 0 0 -240z m150 0 l0 -240 -60 0 -60 0 0 240 0 240 60 0 60 0 0 -240z m-460 -335 l0 -45 -55 0 -55 0 0 45 0 45 55 0 55 0 0 -45z m308 3 l-3 -43 -130 0 -130 0 -3 43 -3 42 136 0 136 0 -3 -42z m150 0 l-3 -43 -55 0 -55 0 -1 43 -2 42 60 0 59 0 -3 -42z m172 -178 l0 -30 -460 0 -460 0 0 30 0 30 460 0 460 0 0 -30z" fill="#ffffff"/>
<path d="M7048 4995 c-5 -21 2 -30 43 -55 27 -16 49 -33 48 -37 0 -5 -10 -62 -22 -127 l-22 -120 -55 -10 c-49 -10 -55 -14 -58 -38 -2 -16 -2 -28 0 -28 18 1 519 98 522 101 2 2 7 20 11 40 l7 36 -227 131 c-125 73 -231 132 -235 132 -4 0 -10 -11 -12 -25z m288 -191 c74 -42 133 -78 131 -80 -4 -4 -286 -54 -306 -54 -14 0 -14 6 10 148 6 34 16 62 21 62 6 0 71 -34 144 -76z" fill="#ffffff"/>
<path d="M4745 4810 c4 -6 113 -10 295 -10 182 0 291 4 295 10 4 7 -97 10 -295 10 -198 0 -299 -3 -295 -10z" fill="#ffffff"/>
<path d="M1115 4699 c-116 -27 -220 -51 -231 -54 -17 -4 -20 -10 -16 -30 2 -14 9 -25 16 -25 8 0 262 58 462 105 17 4 20 10 16 30 -2 15 -11 25 -21 24 -9 0 -110 -23 -226 -50z" fill="#ffffff"/>
<path d="M1142 4521 c-10 -6 -6 -31 22 -118 20 -60 36 -112 36 -116 0 -7 -160 -60 -166 -54 -2 2 -22 55 -43 118 -32 96 -41 113 -57 111 -10 -2 -21 -5 -23 -7 -1 -2 19 -69 45 -149 l49 -145 237 77 c237 77 252 85 230 119 -5 8 -35 2 -112 -22 -57 -19 -107 -32 -110 -29 -3 3 -21 53 -40 111 -35 107 -44 120 -68 104z" fill="#ffffff"/>
<path d="M6946 4475 c-29 -31 -58 -104 -75 -187 -10 -46 -9 -62 2 -91 27 -64 153 -101 213 -62 14 9 37 42 51 73 54 125 64 143 87 153 48 22 126 -21 126 -70 0 -39 -38 -146 -58 -164 -9 -9 -35 -17 -57 -19 -32 -2 -41 -7 -43 -24 -2 -18 3 -23 31 -28 83 -16 141 53 168 200 18 98 -40 164 -143 164 -71 0 -99 -31 -148 -163 -11 -30 -30 -63 -41 -73 -18 -16 -25 -17 -67 -6 -86 23 -97 63 -51 188 28 73 48 89 99 76 38 -9 40 -9 46 15 8 32 3 36 -60 41 -50 4 -57 2 -80 -23z" fill="#ffffff"/>
<path d="M3972 3010 l-53 -5 -254 -490 c-140 -269 -255 -493 -255 -497 0 -5 54 -8 120 -8 l120 0 55 110 55 110 270 0 270 0 55 -110 55 -110 126 0 126 0 -85 163 c-46 89 -162 312 -257 495 -95 184 -178 335 -184 337 -23 7 -113 10 -164 5z m137 -417 l71 -143 -150 0 -150 0 41 83 c52 104 110 209 114 205 2 -2 35 -67 74 -145z" fill="#ffffff"/>
<path d="M4997 3009 c-140 -33 -215 -126 -238 -294 -16 -120 -7 -421 15 -490 32 -102 96 -169 191 -198 28 -8 140 -12 380 -12 l340 0 55 26 c92 45 139 103 160 199 6 30 10 75 8 100 l-3 45 -106 3 -107 3 -4 -61 c-3 -36 -11 -67 -20 -76 -25 -26 -151 -36 -378 -32 -237 5 -281 14 -300 63 -15 40 -13 434 3 465 24 47 55 53 287 58 352 7 410 -10 410 -119 l0 -49 111 0 112 0 -6 79 c-6 89 -28 149 -77 205 -76 86 -127 96 -495 95 -165 -1 -317 -5 -338 -10z" fill="#ffffff"/>
<path d="M6021 3012 c-5 -2 24 -53 64 -115 383 -581 413 -631 397 -649 -12 -14 -31 -18 -94 -18 l-78 0 0 -111 0 -111 98 4 c151 6 217 48 316 198 48 73 486 798 486 805 0 2 -57 4 -128 4 l-127 0 -155 -262 c-84 -144 -159 -270 -165 -279 -10 -16 -36 20 -185 253 -95 149 -178 273 -185 275 -14 6 -230 11 -244 6z" fill="#ffffff"/>
<path d="M1160 2905 l0 -105 210 0 210 0 0 -395 0 -395 110 0 110 0 2 393 3 392 213 3 212 2 0 105 0 105 -535 0 -535 0 0 -105z" fill="#ffffff"/>
<path d="M2420 2510 l0 -500 110 0 110 0 0 395 0 395 330 0 330 0 0 105 0 105 -440 0 -440 0 0 -500z" fill="#ffffff"/>
<path d="M2720 1715 c0 -21 43 -39 74 -31 30 7 56 46 32 46 -8 0 -18 -4 -21 -10 -3 -5 -17 -10 -30 -10 -13 0 -27 5 -30 10 -9 15 -25 12 -25 -5z" fill="#ffffff"/>
<path d="M7380 1715 c0 -35 65 -45 101 -16 28 22 18 41 -11 23 -24 -15 -70 -16 -70 -2 0 6 -4 10 -10 10 -5 0 -10 -7 -10 -15z" fill="#ffffff"/>
<path d="M1124 1683 c-12 -2 -32 -15 -45 -29 -22 -23 -24 -35 -24 -116 0 -86 1 -91 28 -114 23 -20 39 -24 91 -24 92 0 109 16 114 109 6 94 -3 138 -33 157 -23 15 -91 24 -131 17z m110 -49 c12 -11 16 -36 16 -94 0 -96 -10 -110 -80 -110 -65 0 -80 21 -80 110 0 89 15 110 80 110 31 0 54 -6 64 -16z" fill="#ffffff"/>
<path d="M1813 1679 c-55 -16 -68 -55 -64 -187 2 -67 33 -92 114 -92 74 0 107 21 107 70 0 40 -23 39 -41 -2 -12 -29 -19 -33 -59 -36 -73 -5 -85 11 -85 108 0 96 11 110 83 110 39 0 45 -3 55 -30 13 -34 47 -42 47 -11 0 54 -85 92 -157 70z" fill="#ffffff"/>
<path d="M3522 1679 c-42 -13 -62 -56 -62 -138 0 -67 12 -108 38 -127 20 -16 135 -18 162 -4 39 21 55 156 26 225 -21 48 -87 66 -164 44z m122 -45 c12 -11 16 -36 16 -94 0 -96 -10 -110 -80 -110 -70 0 -80 14 -80 110 0 58 4 83 16 94 21 21 107 21 128 0z" fill="#ffffff"/>
<path d="M3855 1685 c-5 -2 -23 -6 -38 -9 -37 -9 -57 -56 -57 -134 0 -70 15 -119 40 -132 10 -6 45 -10 78 -10 70 0 99 18 108 68 6 28 4 32 -15 32 -14 0 -21 -6 -21 -19 0 -32 -28 -51 -74 -51 -66 0 -79 21 -74 120 4 91 10 100 73 100 47 0 61 -8 66 -35 6 -28 39 -33 39 -5 0 36 -19 59 -58 70 -38 10 -49 11 -67 5z" fill="#ffffff"/>
<path d="M5282 1679 c-42 -12 -62 -56 -62 -137 0 -70 15 -119 40 -132 10 -6 45 -10 78 -10 70 0 99 18 108 68 6 28 4 32 -15 32 -14 0 -21 -6 -21 -19 0 -32 -28 -51 -74 -51 -63 0 -76 19 -76 113 0 90 11 107 73 107 49 0 63 -8 68 -35 6 -28 39 -33 39 -5 0 36 -19 59 -58 70 -43 12 -55 12 -100 -1z" fill="#ffffff"/>
<path d="M780 1665 c0 -11 12 -15 45 -15 l45 0 0 -125 c0 -118 1 -125 20 -125 19 0 20 7 20 125 l0 125 45 0 c33 0 45 4 45 15 0 12 -19 15 -110 15 -91 0 -110 -3 -110 -15z" fill="#ffffff"/>
<path d="M1360 1540 c0 -133 1 -140 20 -140 18 0 20 8 22 116 l3 117 49 -117 c36 -88 52 -116 64 -114 10 2 34 44 62 112 l45 109 3 -112 c2 -103 4 -111 22 -111 19 0 20 7 20 140 l0 140 -29 0 c-27 0 -31 -6 -72 -106 -24 -58 -46 -107 -50 -109 -3 -3 -26 45 -50 105 -43 108 -45 110 -76 110 l-33 0 0 -140z" fill="#ffffff"/>
<path d="M2040 1539 c0 -128 2 -140 18 -137 14 3 18 16 20 66 2 34 6 62 10 62 4 0 37 -29 72 -65 45 -46 72 -65 89 -65 23 0 18 8 -46 73 l-72 72 65 68 c56 58 61 67 41 67 -14 0 -44 -21 -82 -60 -33 -33 -63 -60 -67 -60 -4 0 -8 27 -8 60 0 53 -2 60 -20 60 -19 0 -20 -7 -20 -141z" fill="#ffffff"/>
<path d="M2330 1540 l0 -140 29 0 c25 0 36 12 102 120 l74 119 3 -119 c2 -112 4 -120 22 -120 19 0 20 7 20 140 l0 140 -29 0 c-27 0 -36 -11 -105 -122 l-76 -123 0 123 c0 115 -1 122 -20 122 -19 0 -20 -7 -20 -140z" fill="#ffffff"/>
<path d="M2660 1539 l0 -140 27 3 c24 2 39 21 98 115 38 61 71 111 72 110 1 -2 3 -53 4 -115 1 -102 3 -112 20 -112 18 0 19 10 19 140 l0 140 -27 0 c-25 0 -36 -13 -98 -115 l-70 -115 -2 92 c-3 112 -9 138 -28 138 -13 0 -15 -23 -15 -141z" fill="#ffffff"/>
<path d="M3230 1540 c0 -133 1 -140 20 -140 19 0 20 7 20 125 l0 125 70 0 c56 0 70 3 70 15 0 12 -17 15 -90 15 l-90 0 0 -140z" fill="#ffffff"/>
<path d="M4082 1571 c52 -111 56 -141 18 -141 -11 0 -20 -7 -20 -15 0 -21 53 -19 72 3 9 9 39 72 67 140 46 113 49 123 30 120 -16 -2 -30 -24 -57 -92 l-36 -90 -42 92 c-33 71 -47 92 -63 92 -18 0 -14 -11 31 -109z" fill="#ffffff"/>
<path d="M4360 1580 c0 -94 -12 -150 -32 -150 -14 0 -5 -93 10 -98 8 -2 12 8 12 32 l0 36 94 0 95 0 3 -32 c2 -21 8 -33 18 -33 11 0 16 13 18 48 2 28 -1 47 -7 47 -7 0 -11 44 -11 125 l0 125 -100 0 -100 0 0 -100z m160 -40 l0 -110 -71 0 c-64 0 -70 2 -63 18 4 9 9 59 12 110 l4 92 59 0 59 0 0 -110z" fill="#ffffff"/>
<path d="M4719 1653 c-19 -49 -89 -245 -89 -249 0 -2 9 -4 19 -4 12 0 23 11 30 30 10 29 12 30 76 30 65 0 67 -1 78 -30 7 -18 19 -30 29 -30 10 0 18 3 18 8 0 4 -22 66 -49 137 -44 118 -51 130 -75 133 -21 3 -28 -2 -37 -25z m65 -87 c14 -37 26 -70 26 -72 0 -2 -25 -4 -56 -4 -41 0 -55 3 -51 13 2 6 15 40 27 75 13 34 24 61 26 60 1 -2 14 -34 28 -72z" fill="#ffffff"/>
<path d="M4950 1540 c0 -116 3 -140 14 -140 11 0 16 15 18 53 l3 52 67 3 c59 3 70 6 88 29 28 35 27 96 -2 123 -18 17 -35 20 -105 20 l-83 0 0 -140z m158 98 c7 -7 12 -26 12 -43 0 -44 -16 -55 -82 -55 l-58 0 0 55 0 55 58 0 c32 0 63 -5 70 -12z" fill="#ffffff"/>
<path d="M5490 1665 c0 -11 12 -15 45 -15 l45 0 0 -125 c0 -118 1 -125 20 -125 19 0 20 7 20 125 l0 125 45 0 c33 0 45 4 45 15 0 12 -19 15 -110 15 -91 0 -110 -3 -110 -15z" fill="#ffffff"/>
<path d="M5770 1540 l0 -140 88 0 c48 0 92 4 98 8 35 23 44 94 17 124 -13 14 -14 21 -5 30 19 19 15 83 -6 101 -14 13 -39 17 -105 17 l-87 0 0 -140z m168 71 c4 -42 -8 -51 -75 -51 l-53 0 0 45 0 46 63 -3 62 -3 3 -34z m-4 -87 c10 -4 16 -18 16 -40 0 -41 -21 -54 -89 -54 l-51 0 0 50 0 50 54 0 c30 0 61 -3 70 -6z" fill="#ffffff"/>
<path d="M6060 1540 l0 -140 95 0 c78 0 95 3 95 15 0 12 -15 15 -75 15 l-75 0 0 50 0 50 70 0 c56 0 70 3 70 15 0 12 -14 15 -70 15 l-70 0 0 45 0 45 75 0 c60 0 75 3 75 15 0 12 -17 15 -95 15 l-95 0 0 -140z" fill="#ffffff"/>
<path d="M6320 1540 c0 -133 1 -140 20 -140 18 0 20 7 20 65 l0 65 75 0 75 0 0 -65 c0 -58 2 -65 20 -65 19 0 20 7 20 140 0 133 -1 140 -20 140 -18 0 -20 -7 -20 -60 l0 -60 -75 0 -75 0 0 60 c0 53 -2 60 -20 60 -19 0 -20 -7 -20 -140z" fill="#ffffff"/>
<path d="M6630 1540 c0 -133 1 -140 20 -140 18 0 20 7 20 65 l0 66 78 -3 77 -3 3 -62 c2 -47 7 -63 17 -63 12 0 15 24 15 140 0 118 -2 140 -15 140 -12 0 -15 -13 -15 -60 l0 -60 -80 0 -80 0 0 60 c0 53 -2 60 -20 60 -19 0 -20 -7 -20 -140z" fill="#ffffff"/>
<path d="M6950 1540 l0 -140 83 0 c74 0 86 3 105 23 27 29 29 86 5 116 -14 17 -34 23 -85 28 l-68 6 0 53 c0 47 -2 54 -20 54 -19 0 -20 -7 -20 -140z m154 -16 c19 -7 22 -64 4 -82 -7 -7 -36 -12 -65 -12 l-53 0 0 50 0 50 49 0 c27 0 56 -3 65 -6z" fill="#ffffff"/>
<path d="M7200 1540 c0 -133 1 -140 20 -140 19 0 20 7 20 140 0 133 -1 140 -20 140 -19 0 -20 -7 -20 -140z" fill="#ffffff"/>
<path d="M7320 1539 l0 -140 27 3 c23 2 40 22 103 122 l75 120 3 -122 c2 -99 5 -122 17 -122 13 0 15 24 15 141 l0 140 -27 -3 c-24 -2 -39 -21 -98 -115 l-70 -113 -3 115 c-2 107 -4 115 -22 115 -19 0 -20 -7 -20 -141z" fill="#ffffff"/>
<path d="M7380 1215 c0 -15 37 -35 65 -35 19 0 61 37 52 46 -4 5 -17 3 -27 -4 -24 -15 -70 -16 -70 -2 0 6 -4 10 -10 10 -5 0 -10 -7 -10 -15z" fill="#ffffff"/>
<path d="M3814 1184 c-52 -12 -78 -84 -67 -184 9 -79 33 -100 116 -100 99 0 111 14 115 132 4 88 2 97 -20 122 -18 21 -34 27 -73 30 -27 3 -60 2 -71 0z m117 -50 c9 -11 14 -44 14 -96 0 -93 -12 -108 -80 -108 -68 0 -80 16 -80 108 0 52 5 84 14 95 19 23 113 23 132 1z" fill="#ffffff"/>
<path d="M4312 1175 c-40 -17 -52 -48 -52 -129 0 -73 15 -122 40 -136 10 -6 45 -10 77 -10 61 0 103 22 103 55 0 7 3 20 6 29 4 12 0 16 -15 16 -14 0 -21 -6 -21 -18 0 -30 -33 -52 -77 -52 -60 0 -73 20 -73 113 0 90 11 107 73 107 49 0 63 -8 68 -35 6 -28 39 -33 39 -5 0 36 -19 59 -58 70 -49 13 -70 12 -110 -5z" fill="#ffffff"/>
<path d="M5099 1183 c-52 -8 -64 -35 -64 -145 0 -93 2 -101 24 -119 37 -30 141 -27 178 5 27 23 28 28 28 113 0 51 -6 97 -13 110 -18 33 -79 47 -153 36z m117 -58 c24 -36 16 -161 -11 -181 -26 -19 -100 -18 -119 2 -20 19 -23 173 -4 192 7 7 36 12 65 12 45 0 55 -4 69 -25z" fill="#ffffff"/>
<path d="M879 1153 c-19 -49 -89 -245 -89 -249 0 -2 9 -4 19 -4 12 0 23 11 30 30 10 29 12 30 76 30 65 0 67 -1 78 -30 7 -18 19 -30 29 -30 10 0 18 3 18 8 0 4 -22 66 -49 137 -44 118 -51 130 -75 133 -21 3 -28 -2 -37 -25z m91 -160 c0 -2 -25 -3 -56 -3 -49 0 -55 2 -49 18 3 9 16 45 28 79 l21 62 28 -77 c15 -42 28 -77 28 -79z" fill="#ffffff"/>
<path d="M1090 1040 c0 -133 1 -140 20 -140 18 0 20 7 20 55 l0 55 63 0 c53 0 67 4 85 23 26 28 30 92 6 125 -14 20 -23 22 -105 22 l-89 0 0 -140z m158 98 c7 -7 12 -27 12 -45 0 -40 -21 -53 -84 -53 l-46 0 0 55 0 55 53 0 c29 0 58 -5 65 -12z" fill="#ffffff"/>
<path d="M1386 1114 l47 -65 -51 -75 c-48 -70 -49 -74 -27 -74 17 0 32 15 61 60 22 33 41 60 44 60 3 0 22 -27 44 -60 29 -45 44 -60 61 -60 22 0 21 4 -27 74 l-51 75 47 65 c44 62 46 66 24 66 -17 0 -32 -15 -58 -55 -19 -30 -37 -55 -40 -55 -3 0 -21 25 -40 55 -26 40 -41 55 -58 55 -22 0 -20 -4 24 -66z" fill="#ffffff"/>
<path d="M1628 1168 c-2 -7 -4 -69 -3 -138 l0 -125 30 0 c26 0 35 11 99 115 l71 115 3 -117 c2 -110 4 -118 22 -118 19 0 20 7 20 140 l0 140 -29 0 c-26 0 -35 -12 -102 -122 l-74 -122 -3 122 c-2 95 -6 122 -16 122 -8 0 -16 -6 -18 -12z" fill="#ffffff"/>
<path d="M1910 1165 c0 -11 12 -15 45 -15 l45 0 0 -125 c0 -118 1 -125 20 -125 19 0 20 7 20 125 l0 125 45 0 c33 0 45 4 45 15 0 12 -19 15 -110 15 -91 0 -110 -3 -110 -15z" fill="#ffffff"/>
<path d="M2172 1043 l3 -138 93 -3 c77 -2 92 0 92 13 0 12 -14 15 -75 15 l-75 0 0 50 0 50 70 0 c56 0 70 3 70 15 0 12 -14 15 -70 15 l-70 0 0 45 0 45 75 0 c60 0 75 3 75 15 0 12 -17 15 -95 15 l-96 0 3 -137z" fill="#ffffff"/>
<path d="M2412 1043 c3 -122 5 -138 21 -141 15 -3 17 5 17 62 0 47 4 66 13 66 7 0 42 -29 77 -65 45 -46 72 -65 89 -65 23 0 18 8 -48 74 l-73 73 62 67 c57 61 60 66 37 66 -18 0 -39 -16 -77 -60 -29 -33 -58 -60 -66 -60 -10 0 -14 15 -14 60 0 54 -2 60 -20 60 -20 0 -20 -5 -18 -137z" fill="#ffffff"/>
<path d="M2670 1165 c0 -11 12 -15 45 -15 l45 0 0 -125 c0 -118 1 -125 20 -125 19 0 20 7 20 125 l0 125 45 0 c33 0 45 4 45 15 0 12 -19 15 -110 15 -91 0 -110 -3 -110 -15z" fill="#ffffff"/>
<path d="M2920 1171 c0 -5 21 -54 46 -110 47 -102 51 -131 14 -131 -11 0 -20 -7 -20 -15 0 -10 10 -15 28 -15 28 0 53 19 65 50 3 8 26 64 51 123 42 100 44 108 25 105 -16 -2 -29 -23 -55 -87 -18 -46 -35 -86 -37 -88 -2 -2 -22 37 -43 87 -28 64 -44 90 -56 90 -10 0 -18 -4 -18 -9z" fill="#ffffff"/>
<path d="M3190 1040 c0 -133 1 -140 20 -140 18 0 20 7 20 55 l0 55 64 0 c85 0 111 20 111 83 0 73 -20 87 -127 87 l-88 0 0 -140z m168 98 c7 -7 12 -27 12 -45 0 -40 -21 -53 -89 -53 l-51 0 0 55 0 55 58 0 c32 0 63 -5 70 -12z" fill="#ffffff"/>
<path d="M3460 1040 c0 -133 1 -140 20 -140 18 0 20 7 20 65 l0 65 75 0 75 0 0 -65 c0 -58 2 -65 20 -65 19 0 20 7 20 140 0 133 -1 140 -20 140 -18 0 -20 -7 -20 -60 l0 -60 -75 0 -75 0 0 60 c0 53 -2 60 -20 60 -19 0 -20 -7 -20 -140z" fill="#ffffff"/>
<path d="M4510 1165 c0 -11 12 -15 45 -15 l45 0 0 -125 c0 -118 1 -125 20 -125 19 0 20 7 20 125 l0 125 45 0 c33 0 45 4 45 15 0 12 -19 15 -110 15 -91 0 -110 -3 -110 -15z" fill="#ffffff"/>
<path d="M4770 1040 c0 -133 1 -140 20 -140 18 0 20 7 20 55 l0 55 64 0 c84 0 109 18 110 82 2 74 -18 88 -126 88 l-88 0 0 -140z m170 91 c29 -56 0 -91 -76 -91 l-54 0 0 55 0 55 60 0 c48 0 61 -4 70 -19z" fill="#ffffff"/>
<path d="M5320 1040 l0 -140 25 0 c25 0 54 36 141 180 l39 65 3 -122 c2 -100 5 -123 17 -123 13 0 15 24 15 140 l0 140 -27 0 c-25 -1 -36 -14 -98 -117 l-70 -117 -3 117 c-2 109 -4 117 -22 117 -19 0 -20 -7 -20 -140z" fill="#ffffff"/>
<path d="M5610 1165 c0 -11 12 -15 45 -15 l45 0 0 -125 c0 -118 1 -125 20 -125 19 0 20 7 20 124 l0 125 42 3 c23 2 43 9 46 16 3 9 -23 12 -107 12 -92 0 -111 -3 -111 -15z" fill="#ffffff"/>
<path d="M5870 1040 l0 -140 90 0 c73 0 90 3 90 15 0 12 -14 15 -70 15 l-70 0 0 50 0 50 70 0 c56 0 70 3 70 15 0 12 -14 15 -70 15 l-70 0 0 45 0 45 70 0 c56 0 70 3 70 15 0 12 -17 15 -90 15 l-90 0 0 -140z" fill="#ffffff"/>
<path d="M6130 1065 c0 -104 -2 -116 -20 -127 -27 -17 -25 -38 4 -38 41 0 50 24 54 141 l4 109 59 0 59 0 0 -125 c0 -118 1 -125 20 -125 19 0 20 7 20 140 l0 140 -100 0 -100 0 0 -115z" fill="#ffffff"/>
<path d="M6400 1040 l0 -140 83 0 c74 0 86 3 105 23 27 29 29 86 4 117 -14 17 -32 23 -85 27 l-67 6 0 53 c0 47 -2 54 -20 54 -19 0 -20 -7 -20 -140z m168 -50 c5 -44 -17 -60 -80 -60 l-48 0 0 50 0 51 63 -3 62 -3 3 -35z" fill="#ffffff"/>
<path d="M6670 1040 c0 -133 1 -140 20 -140 18 0 20 7 20 65 l0 65 75 0 75 0 0 -65 c0 -58 2 -65 20 -65 19 0 20 7 20 140 0 133 -1 140 -20 140 -18 0 -20 -7 -20 -60 l0 -60 -75 0 -75 0 0 60 c0 53 -2 60 -20 60 -19 0 -20 -7 -20 -140z" fill="#ffffff"/>
<path d="M6970 1040 l0 -140 80 0 c73 0 83 3 105 25 30 29 33 83 7 115 -15 18 -31 23 -90 28 l-72 5 0 53 c0 41 -4 54 -15 54 -13 0 -15 -22 -15 -140z m168 -52 c4 -46 -18 -60 -86 -56 l-47 3 -3 48 -3 48 68 -3 68 -3 3 -37z" fill="#ffffff"/>
<path d="M7220 1040 c0 -118 2 -140 15 -140 13 0 15 22 15 140 0 118 -2 140 -15 140 -13 0 -15 -22 -15 -140z" fill="#ffffff"/>
<path d="M7320 1039 l0 -140 27 3 c23 2 40 22 103 122 l75 120 3 -122 c2 -99 5 -122 17 -122 13 0 15 24 15 140 l0 140 -27 0 c-25 -1 -36 -14 -98 -116 l-70 -115 -3 115 c-2 108 -4 116 -22 116 -19 0 -20 -7 -20 -141z" fill="#ffffff"/>
<path d="M4025 1010 c-4 -6 28 -10 89 -10 57 0 96 4 96 10 0 6 -36 10 -89 10 -50 0 -93 -4 -96 -10z" fill="#ffffff"/>
<path d="M4824 676 c-37 -16 -54 -57 -54 -126 0 -120 23 -150 114 -150 74 0 102 17 112 68 6 28 4 32 -15 32 -15 0 -21 -6 -21 -21 0 -30 -28 -48 -72 -49 -59 0 -78 26 -78 108 0 92 15 112 81 112 47 0 51 -2 60 -30 6 -16 17 -30 25 -30 21 0 17 54 -5 74 -25 23 -108 30 -147 12z" fill="#ffffff"/>
<path d="M791 673 c0 -5 22 -55 48 -113 48 -104 51 -130 15 -130 -8 0 -14 -7 -14 -15 0 -21 43 -19 63 3 15 16 43 77 98 215 18 46 18 47 0 47 -14 0 -27 -20 -51 -82 -18 -46 -36 -86 -39 -90 -4 -5 -24 33 -45 82 -29 67 -44 90 -57 90 -11 0 -19 -3 -18 -7z" fill="#ffffff"/>
<path d="M1460 540 c0 -118 2 -140 15 -140 12 0 15 14 15 65 l0 65 80 0 80 0 0 -65 c0 -58 2 -65 20 -65 19 0 20 7 20 140 0 133 -1 140 -20 140 -18 0 -20 -7 -20 -60 l0 -60 -80 0 -80 0 0 60 c0 47 -3 60 -15 60 -13 0 -15 -22 -15 -140z" fill="#ffffff"/>
<path d="M2140 539 l0 -140 27 3 c23 2 40 22 103 122 l75 120 3 -122 c2 -99 5 -122 17 -122 13 0 15 24 15 140 l0 140 -27 0 c-25 0 -36 -13 -98 -116 l-70 -116 -3 116 c-2 108 -4 116 -22 116 -19 0 -20 -7 -20 -141z" fill="#ffffff"/>
<path d="M2840 540 l0 -140 88 0 c72 0 92 3 104 18 24 27 30 73 13 105 -10 21 -12 34 -5 47 15 27 12 62 -6 88 -14 20 -23 22 -105 22 l-89 0 0 -140z m168 73 c4 -40 -21 -55 -86 -51 l-47 3 -3 43 -3 43 68 -3 68 -3 3 -32z m0 -95 c7 -7 12 -25 12 -40 0 -35 -33 -50 -99 -46 l-46 3 -3 48 -3 47 63 0 c37 0 69 -5 76 -12z" fill="#ffffff"/>
<path d="M3500 540 l0 -140 90 0 c73 0 90 3 90 15 0 12 -14 15 -70 15 l-70 0 0 50 0 50 70 0 c56 0 70 3 70 15 0 12 -14 15 -70 15 l-70 0 0 45 0 45 70 0 c56 0 70 3 70 15 0 12 -17 15 -90 15 l-90 0 0 -140z" fill="#ffffff"/>
<path d="M4130 540 c0 -116 3 -140 14 -140 11 0 16 15 18 53 l3 52 68 5 c82 6 107 28 107 91 0 64 -24 79 -125 79 l-85 0 0 -140z m168 63 c4 -51 -16 -66 -86 -61 l-47 3 -3 53 -3 53 68 -3 68 -3 3 -42z" fill="#ffffff"/>
<path d="M5430 540 l0 -140 29 0 c25 0 36 12 102 120 l74 119 3 -119 c2 -112 4 -120 22 -120 19 0 20 7 20 140 l0 140 -29 0 c-27 0 -36 -11 -105 -122 l-76 -123 0 123 c0 115 -1 122 -20 122 -19 0 -20 -7 -20 -140z" fill="#ffffff"/>
<path d="M6110 665 c0 -11 12 -15 45 -15 l45 0 0 -125 c0 -118 1 -125 20 -125 19 0 20 7 20 125 l0 125 45 0 c33 0 45 4 45 15 0 12 -19 15 -110 15 -91 0 -110 -3 -110 -15z" fill="#ffffff"/>
<path d="M6760 540 l0 -140 90 0 c73 0 90 3 90 15 0 12 -14 15 -70 15 l-70 0 0 50 0 50 70 0 c56 0 70 3 70 15 0 12 -14 15 -70 15 l-70 0 0 45 0 44 73 3 c104 4 90 22 -20 26 l-93 3 0 -141z" fill="#ffffff"/>
<path d="M7370 665 c0 -11 12 -15 45 -15 l45 0 0 -125 c0 -104 2 -125 15 -125 13 0 15 21 15 125 l0 125 45 0 c33 0 45 4 45 15 0 12 -18 15 -105 15 -87 0 -105 -3 -105 -15z" fill="#ffffff"/>
</g>
</svg>